<svg width="56" height="56" viewBox="0 0 56 56" fill="none" xmlns="http://www.w3.org/2000/svg">
<g clip-path="url(#clip0_40_413)">
<path d="M41.629 36.5376L42.0397 36.9506L42.455 36.5376C42.9425 36.0501 43.5213 35.6634 44.1582 35.3995C44.7952 35.1357 45.4779 34.9999 46.1673 34.9999C46.8568 34.9999 47.5395 35.1357 48.1764 35.3995C48.8134 35.6634 49.3922 36.0501 49.8797 36.5376C50.3672 37.0251 50.7539 37.6039 51.0177 38.2408C51.2816 38.8778 51.4174 39.5605 51.4174 40.2499C51.4174 40.9394 51.2816 41.6221 51.0177 42.259C50.7539 42.896 50.3672 43.4747 49.8797 43.9622L42.0397 51.7999L34.2043 43.9622C33.2198 42.9777 32.6666 41.6423 32.6666 40.2499C32.6666 38.8575 33.2198 37.5222 34.2043 36.5376C35.1889 35.553 36.5243 34.9999 37.9167 34.9999C39.3091 34.9999 40.6444 35.553 41.629 36.5376ZM28 32.6666V51.3333H9.33334C9.33339 46.4836 11.2209 41.8243 14.5961 38.3419C17.9713 34.8596 22.5694 32.8275 27.4167 32.6759L28 32.6666ZM28 2.33325C35.735 2.33325 42 8.59825 42 16.3333C42 24.0683 35.735 30.3333 28 30.3333C20.265 30.3333 14 24.0683 14 16.3333C14 8.59825 20.265 2.33325 28 2.33325Z" fill="black"/>
</g>
<defs>
<clipPath id="clip0_40_413">
<rect width="56" height="56" fill="white"/>
</clipPath>
</defs>
</svg>
